<svg width="19" height="18" viewBox="0 0 19 18" fill="none" xmlns="http://www.w3.org/2000/svg">
<path d="M16.1018 3.01322C15.702 2.60554 15.2273 2.28215 14.7048 2.0615C14.1823 1.84086 13.6222 1.72729 13.0566 1.72729C12.491 1.72729 11.931 1.84086 11.4085 2.0615C10.886 2.28215 10.4112 2.60554 10.0114 3.01322L9.18161 3.85889L8.35181 3.01322C7.54416 2.19013 6.44877 1.72772 5.30659 1.72772C4.16441 1.72772 3.06901 2.19013 2.26137 3.01322C1.45373 3.83631 1 4.95266 1 6.11668C1 7.28071 1.45373 8.39706 2.26137 9.22015L3.09117 10.0658L9.18161 16.2728L15.272 10.0658L16.1018 9.22015C16.5019 8.81266 16.8192 8.32885 17.0357 7.79635C17.2522 7.26385 17.3636 6.69309 17.3636 6.11668C17.3636 5.54028 17.2522 4.96952 17.0357 4.43702C16.8192 3.90452 16.5019 3.4207 16.1018 3.01322Z" fill="#FFF" stroke="#767676" stroke-width="1.5" stroke-linecap="round" stroke-linejoin="round"/>
</svg>
